<svg xmlns="http://www.w3.org/2000/svg" width="17" height="16" viewBox="0 0 17 16" fill="none">
    <path
        d="M2.95072 1.99141C1.79204 3.14838 1.11812 4.70363 1.06631 6.34023C1.0145 7.97682 1.58868 9.57159 2.67185 10.7995C3.75503 12.0275 5.26567 12.7962 6.89594 12.9491C8.49648 13.0991 10.0941 12.6444 11.3749 11.6766L14.7061 15.0085L14.7061 15.0085C14.789 15.0914 14.8873 15.1571 14.9955 15.2019C15.1038 15.2468 15.2198 15.2698 15.3369 15.2698C15.4541 15.2698 15.5701 15.2468 15.6783 15.2019C15.7866 15.1571 15.8849 15.0914 15.9678 15.0085C16.0506 14.9257 16.1163 14.8274 16.1611 14.7191C16.206 14.6109 16.229 14.4949 16.229 14.3777C16.229 14.2606 16.206 14.1446 16.1611 14.0363C16.1163 13.9281 16.0506 13.8298 15.9678 13.7469L15.9677 13.7469L12.636 10.416C13.6013 9.13496 14.0539 7.53846 13.903 5.93943C13.7493 4.31054 12.9808 2.80139 11.7539 1.719C10.5269 0.636623 8.93373 0.0623154 7.29838 0.11292C5.66303 0.163525 4.10838 0.835233 2.95072 1.99141ZM2.95072 1.99141L3.02138 2.06217L2.95072 1.99141ZM10.7887 3.25366C11.2263 3.68416 11.5743 4.19703 11.8127 4.76269C12.051 5.32835 12.175 5.93561 12.1775 6.54944C12.18 7.16327 12.061 7.77152 11.8272 8.3391C11.5935 8.90669 11.2497 9.42238 10.8156 9.85642C10.3816 10.2905 9.86589 10.6343 9.29831 10.868C8.73072 11.1018 8.12248 11.2208 7.50865 11.2183C6.89482 11.2158 6.28756 11.0918 5.7219 10.8535C5.15623 10.6151 4.64336 10.2671 4.21287 9.82954C3.35255 8.95509 2.87263 7.77613 2.87762 6.54944C2.88262 5.32275 3.37213 4.14773 4.23954 3.28033C5.10694 2.41292 6.28196 1.92341 7.50865 1.91841C8.73533 1.91342 9.9143 2.39335 10.7887 3.25366Z"
        fill="black" stroke="black" stroke-width="0.2" />
</svg>